<mxfile host="drawio-plugin" modified="2024-04-24T05:54:05.142Z" agent="5.0 (Windows NT 10.0; Win64; x64) AppleWebKit/537.36 (KHTML, like Gecko) Chrome/122.0.0.0 Safari/537.36" etag="3UlIGyEoJPwjGRodI1e_" version="20.5.3" type="embed"><diagram name="Page-1" id="W7xbiicILC2nGdj5UK40"><mxGraphModel dx="727" dy="424" grid="1" gridSize="10" guides="1" tooltips="1" connect="1" arrows="1" fold="1" page="1" pageScale="1" pageWidth="850" pageHeight="1100" math="0" shadow="0"><root><mxCell id="0"/><mxCell id="1" parent="0"/><mxCell id="bqjOl4NagBNuvDGba17c-5" value="Stationary" style="swimlane;fontStyle=1;align=center;verticalAlign=top;childLayout=stackLayout;horizontal=1;startSize=26;horizontalStack=0;resizeParent=1;resizeParentMax=0;resizeLast=0;collapsible=1;marginBottom=0;whiteSpace=wrap;html=1;strokeColor=default;" parent="1" vertex="1"><mxGeometry x="150" y="70" width="290" height="360" as="geometry"/></mxCell><mxCell id="bqjOl4NagBNuvDGba17c-6" value="-&amp;nbsp; price : int [1]&amp;nbsp;&lt;div&gt;- company : string[0..1]&lt;br&gt;&lt;/div&gt;&lt;div&gt;&lt;br&gt;&lt;/div&gt;" style="text;strokeColor=default;fillColor=none;align=left;verticalAlign=top;spacingLeft=4;spacingRight=4;overflow=hidden;rotatable=0;points=[[0,0.5],[1,0.5]];portConstraint=eastwest;whiteSpace=wrap;html=1;" parent="bqjOl4NagBNuvDGba17c-5" vertex="1"><mxGeometry y="26" width="290" height="54" as="geometry"/></mxCell><mxCell id="bqjOl4NagBNuvDGba17c-8" value="&lt;div&gt;+ Stationary()&lt;/div&gt;&lt;div&gt;+ Stationary(int price, String company)&lt;/div&gt;&lt;div&gt;&lt;br&gt;&lt;/div&gt;+ buy() : void&lt;div&gt;&amp;nbsp;&lt;/div&gt;&lt;div&gt;+ getPrice() : int&lt;/div&gt;&lt;div&gt;&lt;br&gt;&lt;/div&gt;&lt;div&gt;+ setPrice(int price) : void&lt;/div&gt;&lt;div&gt;&lt;br&gt;&lt;/div&gt;&lt;div&gt;+getCompany() : String&lt;/div&gt;&lt;div&gt;&lt;br&gt;&lt;/div&gt;&lt;div&gt;+setCompany(String company) : void&lt;/div&gt;&lt;div&gt;&lt;br&gt;&lt;div&gt;&lt;br&gt;&lt;div&gt;+ toString(&lt;span style=&quot;background-color: initial;&quot;&gt;) : String&lt;/span&gt;&lt;/div&gt;&lt;/div&gt;&lt;/div&gt;" style="text;strokeColor=default;fillColor=none;align=left;verticalAlign=top;spacingLeft=4;spacingRight=4;overflow=hidden;rotatable=0;points=[[0,0.5],[1,0.5]];portConstraint=eastwest;whiteSpace=wrap;html=1;" parent="bqjOl4NagBNuvDGba17c-5" vertex="1"><mxGeometry y="80" width="290" height="280" as="geometry"/></mxCell><mxCell id="bqjOl4NagBNuvDGba17c-9" value="BallpenMain" style="swimlane;fontStyle=1;align=center;verticalAlign=top;childLayout=stackLayout;horizontal=1;startSize=26;horizontalStack=0;resizeParent=1;resizeParentMax=0;resizeLast=0;collapsible=1;marginBottom=0;whiteSpace=wrap;html=1;" parent="1" vertex="1"><mxGeometry x="580" y="930" width="160" height="52" as="geometry"/></mxCell><mxCell id="bqjOl4NagBNuvDGba17c-12" value="+ main(args: String[])" style="text;strokeColor=none;fillColor=none;align=left;verticalAlign=top;spacingLeft=4;spacingRight=4;overflow=hidden;rotatable=0;points=[[0,0.5],[1,0.5]];portConstraint=eastwest;whiteSpace=wrap;html=1;" parent="bqjOl4NagBNuvDGba17c-9" vertex="1"><mxGeometry y="26" width="160" height="26" as="geometry"/></mxCell><mxCell id="bqjOl4NagBNuvDGba17c-15" value="Use" style="endArrow=open;endSize=12;dashed=1;html=1;rounded=0;" parent="1" target="bqjOl4NagBNuvDGba17c-20" edge="1"><mxGeometry width="160" relative="1" as="geometry"><mxPoint x="570" y="980" as="sourcePoint"/><mxPoint x="340" y="870" as="targetPoint"/></mxGeometry></mxCell><mxCell id="bqjOl4NagBNuvDGba17c-20" value="Ballpen" style="swimlane;fontStyle=1;align=center;verticalAlign=top;childLayout=stackLayout;horizontal=1;startSize=26;horizontalStack=0;resizeParent=1;resizeParentMax=0;resizeLast=0;collapsible=1;marginBottom=0;whiteSpace=wrap;html=1;" parent="1" vertex="1"><mxGeometry x="120" y="540" width="270" height="350" as="geometry"/></mxCell><mxCell id="bqjOl4NagBNuvDGba17c-21" value="- width : int[1]" style="text;strokeColor=none;fillColor=none;align=left;verticalAlign=top;spacingLeft=4;spacingRight=4;overflow=hidden;rotatable=0;points=[[0,0.5],[1,0.5]];portConstraint=eastwest;whiteSpace=wrap;html=1;" parent="bqjOl4NagBNuvDGba17c-20" vertex="1"><mxGeometry y="26" width="270" height="26" as="geometry"/></mxCell><mxCell id="bqjOl4NagBNuvDGba17c-22" value="" style="line;strokeWidth=1;fillColor=none;align=left;verticalAlign=middle;spacingTop=-1;spacingLeft=3;spacingRight=3;rotatable=0;labelPosition=right;points=[];portConstraint=eastwest;strokeColor=inherit;" parent="bqjOl4NagBNuvDGba17c-20" vertex="1"><mxGeometry y="52" width="270" height="8" as="geometry"/></mxCell><mxCell id="bqjOl4NagBNuvDGba17c-23" value="&lt;div&gt;+ Ballpen()&lt;/div&gt;&lt;div&gt;&lt;br&gt;&lt;/div&gt;&lt;div&gt;+Ballpen(int width)&lt;/div&gt;&lt;div&gt;&lt;br&gt;&lt;/div&gt;&lt;div&gt;+Ballpen(&lt;span style=&quot;background-color: initial;&quot;&gt;int price, String company, int width&lt;/span&gt;&lt;span style=&quot;background-color: initial;&quot;&gt;)&lt;/span&gt;&lt;/div&gt;&lt;div&gt;&lt;br&gt;&lt;/div&gt;+ write() : void&lt;div&gt;&lt;br&gt;&lt;/div&gt;&lt;div&gt;+getWidth() : int&lt;/div&gt;&lt;div&gt;&lt;br&gt;&lt;/div&gt;&lt;div&gt;+setWidth(int width) : void&lt;br&gt;&lt;div&gt;&lt;br&gt;&lt;div&gt;+ toString(&lt;span style=&quot;background-color: initial;&quot;&gt;) : String&lt;/span&gt;&lt;/div&gt;&lt;/div&gt;&lt;/div&gt;" style="text;strokeColor=none;fillColor=none;align=left;verticalAlign=top;spacingLeft=4;spacingRight=4;overflow=hidden;rotatable=0;points=[[0,0.5],[1,0.5]];portConstraint=eastwest;whiteSpace=wrap;html=1;" parent="bqjOl4NagBNuvDGba17c-20" vertex="1"><mxGeometry y="60" width="270" height="290" as="geometry"/></mxCell><mxCell id="bqjOl4NagBNuvDGba17c-25" value="Extends" style="endArrow=block;endSize=16;endFill=0;html=1;rounded=0;entryX=0.33;entryY=1.038;entryDx=0;entryDy=0;entryPerimeter=0;" parent="1" target="bqjOl4NagBNuvDGba17c-8" edge="1"><mxGeometry width="160" relative="1" as="geometry"><mxPoint x="190" y="530" as="sourcePoint"/><mxPoint x="200" y="270" as="targetPoint"/></mxGeometry></mxCell></root></mxGraphModel></diagram></mxfile>